<svg xmlns="http://www.w3.org/2000/svg" width="400" height="400" viewBox="0 0 400 400"><rect width="100%" height="100%" fill="#DDDDDD"/><path fill="#999999" d="M93.69 206.74q1.52 0 2.72-.51 1.2-.51 2.01-1.42.82-.92 1.26-2.22.44-1.31.44-2.93v-16.89h5.25v16.89q0 2.52-.81 4.65-.81 2.14-2.32 3.69-1.51 1.55-3.68 2.41-2.16.87-4.87.87-2.73 0-4.9-.87-2.16-.86-3.67-2.41-1.52-1.55-2.32-3.69-.81-2.13-.81-4.65v-16.89h5.24v16.87q0 1.62.44 2.93.44 1.3 1.27 2.23.83.92 2.03 1.43 1.2.51 2.72.51Zm21.66-9.93v8.97q.82 1 1.78 1.41.97.41 2.1.41 1.09 0 1.97-.41.88-.41 1.49-1.25.62-.84.95-2.12.33-1.27.33-3.01 0-1.75-.28-2.97-.29-1.22-.81-1.98-.53-.76-1.28-1.11-.75-.35-1.71-.35-1.5 0-2.55.63-1.05.63-1.99 1.78Zm-.64-4.97.39 1.85q1.23-1.38 2.79-2.24 1.56-.86 3.66-.86 1.64 0 2.99.68 1.36.69 2.34 1.98.99 1.3 1.53 3.2.53 1.9.53 4.36 0 2.24-.6 4.15-.61 1.92-1.73 3.32t-2.71 2.19q-1.59.79-3.56.79-1.67 0-2.86-.51-1.19-.52-2.13-1.44v8.19h-4.82v-26.54h2.95q.93 0 1.23.88Zm18.03-9.85h4.82v28.98h-4.82v-28.98Zm18.49 8.66q2.22 0 4.05.72 1.82.72 3.12 2.05 1.29 1.33 2 3.24.7 1.91.7 4.27 0 2.38-.7 4.29-.71 1.91-2 3.25-1.3 1.35-3.12 2.07-1.83.72-4.05.72-2.24 0-4.07-.72-1.84-.72-3.13-2.07-1.3-1.34-2.01-3.25-.71-1.91-.71-4.29 0-2.36.71-4.27.71-1.91 2.01-3.24 1.29-1.33 3.13-2.05 1.83-.72 4.07-.72Zm0 16.91q2.5 0 3.7-1.68 1.2-1.68 1.2-4.91 0-3.24-1.2-4.94-1.2-1.69-3.7-1.69-2.53 0-3.75 1.7-1.22 1.71-1.22 4.93 0 3.21 1.22 4.9 1.22 1.69 3.75 1.69Zm24.12-1.76v-3.37q-2.08.1-3.51.36-1.42.26-2.28.67-.86.41-1.23.96-.37.54-.37 1.19 0 1.27.75 1.81.75.55 1.96.55 1.48 0 2.57-.54 1.08-.54 2.11-1.63Zm-10.18-10.51-.86-1.54q3.46-3.16 8.31-3.16 1.76 0 3.14.58 1.39.57 2.34 1.6.96 1.02 1.45 2.44.5 1.43.5 3.12v12.64h-2.18q-.69 0-1.06-.2-.37-.21-.58-.83l-.43-1.45q-.76.69-1.48 1.2-.72.52-1.5.87t-1.67.54q-.89.18-1.96.18-1.27 0-2.34-.34-1.07-.34-1.85-1.02-.78-.69-1.21-1.7-.43-1.01-.43-2.36 0-.76.25-1.51.26-.75.83-1.43.58-.69 1.49-1.29.92-.61 2.26-1.05 1.33-.45 3.11-.73 1.77-.29 4.05-.35v-1.17q0-2-.86-2.97-.85-.96-2.47-.96-1.17 0-1.94.27t-1.36.61l-1.06.62q-.48.27-1.06.27-.51 0-.86-.26-.35-.27-.57-.62Zm31.96 9.75v-8.97q-.82-.99-1.78-1.4-.97-.41-2.08-.41-1.09 0-1.97.41-.87.41-1.5 1.24-.62.83-.95 2.1-.34 1.28-.34 3.01 0 1.76.29 2.98.28 1.22.81 1.99.52.77 1.28 1.11.76.34 1.7.34 1.5 0 2.55-.62 1.06-.63 1.99-1.78Zm0-23.05h4.82v28.98h-2.94q-.96 0-1.21-.88l-.41-1.93q-1.21 1.39-2.78 2.24-1.57.86-3.66.86-1.64 0-3-.68-1.37-.68-2.35-1.98-.99-1.3-1.52-3.21-.54-1.91-.54-4.37 0-2.22.61-4.13.6-1.91 1.73-3.31 1.13-1.41 2.71-2.2 1.58-.79 3.55-.79 1.68 0 2.87.53 1.19.53 2.12 1.42v-10.55Zm25.08.78v28.2h-5.26v-28.2h5.26Zm10.35 28.2h-4.81v-20.01h2.94q.94 0 1.23.88l.31 1.48q.53-.58 1.11-1.07.57-.49 1.22-.84.66-.35 1.41-.55.75-.21 1.65-.21 1.89 0 3.11 1.02 1.21 1.03 1.82 2.73.47-1 1.17-1.71t1.54-1.16q.84-.45 1.78-.66.95-.22 1.9-.22 1.66 0 2.95.51 1.29.51 2.16 1.48.88.97 1.34 2.38.46 1.4.46 3.22v12.73h-4.82v-12.73q0-1.91-.84-2.88-.84-.96-2.45-.96-.75 0-1.38.25-.63.25-1.11.73-.48.48-.75 1.2t-.27 1.66v12.73h-4.84v-12.73q0-2.01-.81-2.93-.81-.91-2.37-.91-1.05 0-1.96.51-.9.52-1.69 1.42v14.64Zm38.42-5.17v-3.37q-2.09.1-3.51.36t-2.28.67q-.86.41-1.23.96-.37.54-.37 1.19 0 1.27.75 1.81.75.55 1.96.55 1.48 0 2.56-.54 1.09-.54 2.12-1.63Zm-10.18-10.51-.86-1.54q3.45-3.16 8.31-3.16 1.75 0 3.14.58 1.38.57 2.34 1.6.96 1.02 1.45 2.44.5 1.43.5 3.12v12.64h-2.18q-.69 0-1.06-.2-.37-.21-.58-.83l-.43-1.45q-.76.69-1.48 1.2-.73.52-1.51.87t-1.66.54q-.89.18-1.96.18-1.27 0-2.34-.34-1.07-.34-1.85-1.02-.78-.69-1.21-1.7-.43-1.01-.43-2.36 0-.76.25-1.51t.83-1.43q.57-.69 1.49-1.29.92-.61 2.25-1.05 1.34-.45 3.11-.73 1.78-.29 4.06-.35v-1.17q0-2-.86-2.97-.86-.96-2.47-.96-1.17 0-1.94.27t-1.36.61l-1.06.62q-.48.27-1.07.27-.5 0-.85-.26-.35-.27-.57-.62Zm26.72 5.19q.89 0 1.56-.24.66-.25 1.1-.68.44-.43.66-1.03.22-.61.22-1.33 0-1.48-.88-2.35-.89-.86-2.66-.86-1.78 0-2.67.86-.88.87-.88 2.35 0 .71.22 1.31.23.6.66 1.04.44.44 1.12.69.67.24 1.55.24Zm5.44 11.39q0-.59-.35-.96-.36-.37-.96-.57-.6-.21-1.41-.31-.81-.09-1.72-.14-.91-.05-1.87-.09-.97-.04-1.88-.16-.8.45-1.3 1.06-.5.6-.5 1.4 0 .53.27.99.26.45.83.79.58.33 1.5.51.91.19 2.24.19 1.34 0 2.32-.21.97-.2 1.61-.56.63-.36.92-.86.3-.5.3-1.08Zm-.96-20.22h5.75v1.79q0 .86-1.03 1.05l-1.79.33q.41 1.04.41 2.27 0 1.48-.6 2.68-.59 1.2-1.65 2.04-1.05.83-2.48 1.29-1.44.46-3.09.46-.59 0-1.13-.06-.55-.06-1.08-.15-.93.56-.93 1.26 0 .61.55.89.56.28 1.47.4.92.12 2.09.15t2.4.12q1.23.1 2.4.34 1.17.25 2.08.77.92.53 1.48 1.44.55.9.55 2.33 0 1.32-.65 2.57-.65 1.25-1.89 2.23-1.24.97-3.04 1.56-1.81.6-4.11.6-2.26 0-3.94-.44-1.67-.44-2.79-1.17-1.11-.73-1.65-1.69-.55-.95-.55-1.99 0-1.4.85-2.34.85-.95 2.33-1.52-.8-.41-1.27-1.09-.47-.68-.47-1.79 0-.45.17-.93.16-.48.49-.94.32-.47.81-.89.48-.42 1.15-.75-1.53-.82-2.39-2.19-.87-1.36-.87-3.19 0-1.49.59-2.69.6-1.19 1.66-2.04 1.06-.85 2.52-1.3 1.45-.45 3.17-.45 1.28 0 2.41.27 1.13.26 2.07.77Zm12.6 7.02h9.09q0-.94-.27-1.77-.26-.83-.79-1.45-.52-.63-1.33-.99t-1.89-.36q-2.08 0-3.28 1.19-1.2 1.19-1.53 3.38Zm12.28 2.9H304.5q.12 1.54.55 2.66.43 1.12 1.13 1.86.7.73 1.66 1.09.97.36 2.14.36 1.17 0 2.02-.28.85-.27 1.48-.6.63-.33 1.11-.6.48-.28.93-.28.6 0 .89.45l1.39 1.76q-.8.93-1.79 1.57-1 .63-2.08 1.01t-2.2.54q-1.13.15-2.18.15-2.09 0-3.88-.69t-3.12-2.05q-1.33-1.35-2.09-3.35-.76-2-.76-4.63 0-2.05.67-3.85.66-1.81 1.9-3.14 1.24-1.34 3.02-2.12t4.03-.78q1.89 0 3.49.61 1.6.6 2.75 1.76 1.15 1.16 1.8 2.85.65 1.68.65 3.85 0 1.09-.23 1.47-.23.38-.9.38Z"/></svg>